<?xml version="1.0" standalone="no"?>
<!DOCTYPE svg PUBLIC "-//W3C//DTD SVG 20010904//EN"
 "http://www.w3.org/TR/2001/REC-SVG-20010904/DTD/svg10.dtd">
<svg version="1.0" xmlns="http://www.w3.org/2000/svg"
 width="200.000000pt" height="200.000000pt" viewBox="0 0 200.000000 200.000000"
 preserveAspectRatio="xMidYMid meet">
<metadata>
Created by potrace 1.11, written by Peter Selinger 2001-2013
</metadata>
<g transform="translate(0.000000,200.000000) scale(0.100000,-0.100000)"
fill="#000000" stroke="none">
<path d="M790 1884 c-351 -75 -593 -322 -670 -683 -73 -342 54 -715 307 -908
91 -69 156 -103 288 -149 l110 -39 270 0 c258 0 273 1 327 23 130 52 314 201
404 328 69 97 82 200 32 253 -19 21 -28 23 -87 19 -84 -6 -108 -20 -203 -112
-43 -41 -94 -80 -113 -87 -21 -8 -35 -20 -35 -30 0 -26 -55 -67 -112 -84 -64
-19 -80 -19 -143 0 -27 9 -108 22 -180 31 -227 26 -309 58 -396 152 -80 87
-109 133 -140 223 -66 184 -61 354 13 503 48 99 89 149 181 223 186 151 204
158 403 150 100 -4 153 -3 149 3 -10 16 41 11 55 -5 8 -10 30 -15 62 -15 44 0
54 -4 96 -43 26 -24 67 -55 92 -69 25 -15 57 -35 70 -46 l25 -20 -28 5 c-15 3
-27 2 -27 -2 0 -5 18 -31 39 -59 59 -77 147 -230 161 -282 9 -31 16 -41 21
-32 16 25 9 55 -25 100 -24 30 -33 52 -30 69 3 17 -4 35 -26 59 -20 23 -30 45
-29 65 0 17 3 24 6 18 2 -7 12 -13 20 -13 24 0 8 76 -24 120 -43 57 -159 165
-200 186 -21 10 -42 25 -46 32 -11 16 -142 78 -192 91 -22 5 -65 17 -95 25
-69 20 -240 20 -330 0z"/>
<path d="M1744 1396 c6 -19 14 -33 17 -30 8 5 -12 64 -22 64 -3 0 -1 -15 5
-34z"/>
<path d="M1775 1287 c-4 -10 -5 -21 -1 -24 10 -10 18 4 13 24 -4 17 -4 17 -12
0z"/>
<path d="M1781 1168 c0 -7 6 -42 13 -78 8 -46 17 -66 28 -68 14 -3 16 5 11 55
-5 58 -24 103 -43 103 -6 0 -10 -6 -9 -12z"/>
</g>
</svg>
